<svg id="visual" viewBox="0 0 900 600" width="900" height="600" xmlns="http://www.w3.org/2000/svg" xmlns:xlink="http://www.w3.org/1999/xlink" version="1.1"><rect x="0" y="0" width="900" height="600" fill="#797979"></rect><path d="M0 446L21.5 447.7C43 449.3 86 452.7 128.8 461.3C171.7 470 214.3 484 257.2 481.5C300 479 343 460 385.8 455.2C428.7 450.3 471.3 459.7 514.2 459C557 458.3 600 447.7 642.8 445.2C685.7 442.7 728.3 448.3 771.2 439.8C814 431.3 857 408.7 878.5 397.3L900 386L900 601L878.5 601C857 601 814 601 771.2 601C728.3 601 685.7 601 642.8 601C600 601 557 601 514.2 601C471.3 601 428.7 601 385.8 601C343 601 300 601 257.2 601C214.3 601 171.7 601 128.8 601C86 601 43 601 21.5 601L0 601Z" fill="#0066ff"></path><path d="M0 476L21.5 463.7C43 451.3 86 426.7 128.8 419.3C171.7 412 214.3 422 257.2 434C300 446 343 460 385.8 455C428.7 450 471.3 426 514.2 417.5C557 409 600 416 642.8 420.2C685.7 424.3 728.3 425.7 771.2 426.2C814 426.7 857 426.3 878.5 426.2L900 426L900 601L878.5 601C857 601 814 601 771.2 601C728.3 601 685.7 601 642.8 601C600 601 557 601 514.2 601C471.3 601 428.7 601 385.8 601C343 601 300 601 257.2 601C214.3 601 171.7 601 128.8 601C86 601 43 601 21.5 601L0 601Z" fill="#0074ff"></path><path d="M0 518L21.5 514C43 510 86 502 128.8 500.8C171.7 499.7 214.3 505.3 257.2 508.8C300 512.3 343 513.7 385.8 511.3C428.7 509 471.3 503 514.2 488.7C557 474.3 600 451.7 642.8 444.8C685.7 438 728.3 447 771.2 449.2C814 451.3 857 446.7 878.5 444.3L900 442L900 601L878.5 601C857 601 814 601 771.2 601C728.3 601 685.7 601 642.8 601C600 601 557 601 514.2 601C471.3 601 428.7 601 385.8 601C343 601 300 601 257.2 601C214.3 601 171.7 601 128.8 601C86 601 43 601 21.5 601L0 601Z" fill="#0080ff"></path><path d="M0 459L21.5 458.8C43 458.7 86 458.3 128.8 458.7C171.7 459 214.3 460 257.2 472.8C300 485.7 343 510.3 385.8 518.3C428.7 526.3 471.3 517.7 514.2 517.5C557 517.3 600 525.7 642.8 530.3C685.7 535 728.3 536 771.2 534.5C814 533 857 529 878.5 527L900 525L900 601L878.5 601C857 601 814 601 771.2 601C728.3 601 685.7 601 642.8 601C600 601 557 601 514.2 601C471.3 601 428.7 601 385.8 601C343 601 300 601 257.2 601C214.3 601 171.7 601 128.8 601C86 601 43 601 21.5 601L0 601Z" fill="#008cff"></path><path d="M0 489L21.5 497.2C43 505.3 86 521.7 128.8 527C171.7 532.3 214.3 526.7 257.2 520.3C300 514 343 507 385.8 509.8C428.7 512.7 471.3 525.3 514.2 531.3C557 537.3 600 536.7 642.8 529.5C685.7 522.3 728.3 508.7 771.2 509C814 509.3 857 523.7 878.5 530.8L900 538L900 601L878.5 601C857 601 814 601 771.2 601C728.3 601 685.7 601 642.8 601C600 601 557 601 514.2 601C471.3 601 428.7 601 385.8 601C343 601 300 601 257.2 601C214.3 601 171.7 601 128.8 601C86 601 43 601 21.5 601L0 601Z" fill="#1e97fd"></path><path d="M0 563L21.5 561.2C43 559.3 86 555.7 128.8 556.7C171.7 557.7 214.3 563.3 257.2 562.3C300 561.3 343 553.7 385.8 554C428.7 554.3 471.3 562.7 514.2 561.5C557 560.3 600 549.7 642.8 551.5C685.7 553.3 728.3 567.7 771.2 567.7C814 567.7 857 553.3 878.5 546.2L900 539L900 601L878.5 601C857 601 814 601 771.2 601C728.3 601 685.7 601 642.8 601C600 601 557 601 514.2 601C471.3 601 428.7 601 385.8 601C343 601 300 601 257.2 601C214.3 601 171.7 601 128.8 601C86 601 43 601 21.5 601L0 601Z" fill="#37a2fb"></path><path d="M0 596L21.5 591.7C43 587.3 86 578.7 128.8 570.7C171.7 562.7 214.3 555.3 257.2 559.2C300 563 343 578 385.8 579.5C428.7 581 471.3 569 514.2 561.7C557 554.3 600 551.7 642.8 555.7C685.7 559.7 728.3 570.3 771.2 568.8C814 567.3 857 553.7 878.5 546.8L900 540L900 601L878.5 601C857 601 814 601 771.2 601C728.3 601 685.7 601 642.8 601C600 601 557 601 514.2 601C471.3 601 428.7 601 385.8 601C343 601 300 601 257.2 601C214.3 601 171.7 601 128.8 601C86 601 43 601 21.5 601L0 601Z" fill="#4facf7"></path></svg>